<svg xmlns="http://www.w3.org/2000/svg" viewBox="0 0 57.73 50"><defs><style>.cls-1{fill:#fff;}.cls-2{fill:#e6e7e8;}</style></defs><g id="圖層_2" data-name="圖層 2"><g id="圖層_1-2" data-name="圖層 1"><polygon points="0 25 14.43 50 43.3 50 57.73 25 43.3 0 14.43 0 0 25"/><path class="cls-1" d="M41,4,53.12,25,41,46H16.74L4.62,25,16.74,4H41m.58-1H16.17l-.29.5L3.75,24.5l-.29.5.29.5,12.13,21,.29.5h25.4l.29-.5L54,25.5l.29-.5L54,24.5,41.86,3.5,41.57,3Z"/><path class="cls-2" d="M31.21,18.73h3.12V14.86H31.21a4.9,4.9,0,0,0-4.68,5.07v1.95H23.41v3.88h3.12v9.38h3.9V25.76h3.9V21.88h-3.9v-2C30.43,19.23,30.84,18.73,31.21,18.73Z"/></g></g></svg>